<mxfile host="app.diagrams.net" modified="2021-05-24T09:27:12.917Z" agent="5.0 (Windows NT 10.0; Win64; x64) AppleWebKit/537.36 (KHTML, like Gecko) Chrome/90.0.4430.212 Safari/537.36" etag="nNt5WmVHbFhbSdfzsoqc" version="14.6.13" type="github">
  <diagram id="jGCV98gVly2-MNFm8NOj" name="Page-1">
    <mxGraphModel dx="2233" dy="2183" grid="1" gridSize="10" guides="1" tooltips="1" connect="1" arrows="1" fold="1" page="1" pageScale="1" pageWidth="1800" pageHeight="500" background="#FFFFFF" math="0" shadow="0">
      <root>
        <mxCell id="0" />
        <mxCell id="1" parent="0" />
        <mxCell id="Zt5BA39hv14aOKBqLXmp-29" value="" style="endArrow=classic;html=1;entryX=0;entryY=0.5;entryDx=0;entryDy=0;entryPerimeter=0;exitX=1;exitY=0.5;exitDx=0;exitDy=0;" parent="1" source="Zt5BA39hv14aOKBqLXmp-16" edge="1">
          <mxGeometry width="50" height="50" relative="1" as="geometry">
            <mxPoint x="804" y="-140" as="sourcePoint" />
            <mxPoint x="1154" y="-320.25" as="targetPoint" />
          </mxGeometry>
        </mxCell>
        <mxCell id="Zt5BA39hv14aOKBqLXmp-30" value="" style="group;fontSize=12;" parent="1" vertex="1" connectable="0">
          <mxGeometry x="442" y="-460" width="710" height="410" as="geometry" />
        </mxCell>
        <mxCell id="Zt5BA39hv14aOKBqLXmp-1" value="&lt;font style=&quot;font-size: 14px&quot;&gt;FHIR-Gateway&lt;/font&gt;" style="whiteSpace=wrap;html=1;labelPosition=center;verticalLabelPosition=top;align=center;verticalAlign=bottom;" parent="Zt5BA39hv14aOKBqLXmp-30" vertex="1">
          <mxGeometry x="-38" width="620" height="410" as="geometry" />
        </mxCell>
        <mxCell id="Zt5BA39hv14aOKBqLXmp-2" value="REST-API" style="triangle;whiteSpace=wrap;html=1;align=left;" parent="Zt5BA39hv14aOKBqLXmp-30" vertex="1">
          <mxGeometry x="-58" y="150.5" width="90" height="79.5" as="geometry" />
        </mxCell>
        <mxCell id="Zt5BA39hv14aOKBqLXmp-6" value="LOINC-Harmonizer" style="shape=process;whiteSpace=wrap;html=1;backgroundOutline=1;" parent="Zt5BA39hv14aOKBqLXmp-30" vertex="1">
          <mxGeometry x="377" y="20" width="130" height="60" as="geometry" />
        </mxCell>
        <mxCell id="Zt5BA39hv14aOKBqLXmp-7" value="FHIR-Pseudonymizer" style="shape=process;whiteSpace=wrap;html=1;backgroundOutline=1;" parent="Zt5BA39hv14aOKBqLXmp-30" vertex="1">
          <mxGeometry x="207" y="20" width="140" height="60" as="geometry" />
        </mxCell>
        <mxCell id="Zt5BA39hv14aOKBqLXmp-8" value="Three-Way-Merge" style="shape=process;whiteSpace=wrap;html=1;backgroundOutline=1;" parent="Zt5BA39hv14aOKBqLXmp-30" vertex="1">
          <mxGeometry x="37" y="20" width="140" height="60" as="geometry" />
        </mxCell>
        <mxCell id="Zt5BA39hv14aOKBqLXmp-12" value="" style="endArrow=classic;html=1;" parent="Zt5BA39hv14aOKBqLXmp-30" source="Zt5BA39hv14aOKBqLXmp-7" edge="1">
          <mxGeometry x="-63" width="50" height="50" as="geometry">
            <mxPoint x="277" y="180" as="sourcePoint" />
            <mxPoint x="277" y="240" as="targetPoint" />
          </mxGeometry>
        </mxCell>
        <mxCell id="Zt5BA39hv14aOKBqLXmp-16" value="JDBC" style="triangle;whiteSpace=wrap;html=1;align=left;" parent="Zt5BA39hv14aOKBqLXmp-30" vertex="1">
          <mxGeometry x="562" y="100" width="90" height="79.5" as="geometry" />
        </mxCell>
        <mxCell id="Zt5BA39hv14aOKBqLXmp-17" value="REST-Client" style="triangle;whiteSpace=wrap;html=1;align=left;dashed=1;" parent="Zt5BA39hv14aOKBqLXmp-30" vertex="1">
          <mxGeometry x="562" y="199.5" width="90" height="80" as="geometry" />
        </mxCell>
        <mxCell id="Zt5BA39hv14aOKBqLXmp-19" value="Kafka-Producer" style="triangle;whiteSpace=wrap;html=1;align=left;dashed=1;" parent="Zt5BA39hv14aOKBqLXmp-30" vertex="1">
          <mxGeometry x="562" y="299.5" width="90" height="80" as="geometry" />
        </mxCell>
        <mxCell id="Zt5BA39hv14aOKBqLXmp-20" value="Kafka-Consumer" style="triangle;whiteSpace=wrap;html=1;align=left;dashed=1;" parent="Zt5BA39hv14aOKBqLXmp-30" vertex="1">
          <mxGeometry x="-58" y="250" width="90" height="80" as="geometry" />
        </mxCell>
        <mxCell id="Zt5BA39hv14aOKBqLXmp-22" value="" style="endArrow=classic;html=1;exitX=1;exitY=0.5;exitDx=0;exitDy=0;entryX=0;entryY=0.5;entryDx=0;entryDy=0;" parent="Zt5BA39hv14aOKBqLXmp-30" source="Zt5BA39hv14aOKBqLXmp-2" target="Zt5BA39hv14aOKBqLXmp-17" edge="1">
          <mxGeometry relative="1" as="geometry">
            <mxPoint x="182" y="240" as="sourcePoint" />
            <mxPoint x="522" y="240" as="targetPoint" />
            <Array as="points">
              <mxPoint x="52" y="190" />
              <mxPoint x="52" y="240" />
            </Array>
          </mxGeometry>
        </mxCell>
        <mxCell id="Zt5BA39hv14aOKBqLXmp-23" value="" style="shape=message;html=1;outlineConnect=0;" parent="Zt5BA39hv14aOKBqLXmp-22" vertex="1">
          <mxGeometry width="20" height="14" relative="1" as="geometry">
            <mxPoint x="-90" y="-6.779999999999999" as="offset" />
          </mxGeometry>
        </mxCell>
        <mxCell id="Zt5BA39hv14aOKBqLXmp-24" value="" style="endArrow=none;html=1;exitX=1;exitY=0.5;exitDx=0;exitDy=0;" parent="Zt5BA39hv14aOKBqLXmp-30" source="Zt5BA39hv14aOKBqLXmp-20" edge="1">
          <mxGeometry width="50" height="50" relative="1" as="geometry">
            <mxPoint x="362" y="330" as="sourcePoint" />
            <mxPoint x="112" y="240" as="targetPoint" />
            <Array as="points">
              <mxPoint x="52" y="290" />
              <mxPoint x="52" y="240" />
            </Array>
          </mxGeometry>
        </mxCell>
        <mxCell id="Zt5BA39hv14aOKBqLXmp-25" value="" style="endArrow=classic;html=1;entryX=0;entryY=0.5;entryDx=0;entryDy=0;" parent="Zt5BA39hv14aOKBqLXmp-30" target="Zt5BA39hv14aOKBqLXmp-16" edge="1">
          <mxGeometry width="50" height="50" relative="1" as="geometry">
            <mxPoint x="532" y="240" as="sourcePoint" />
            <mxPoint x="412" y="280" as="targetPoint" />
            <Array as="points">
              <mxPoint x="532" y="140" />
            </Array>
          </mxGeometry>
        </mxCell>
        <mxCell id="Zt5BA39hv14aOKBqLXmp-26" value="" style="endArrow=classic;html=1;entryX=0;entryY=0.5;entryDx=0;entryDy=0;" parent="Zt5BA39hv14aOKBqLXmp-30" target="Zt5BA39hv14aOKBqLXmp-19" edge="1">
          <mxGeometry width="50" height="50" relative="1" as="geometry">
            <mxPoint x="532" y="240" as="sourcePoint" />
            <mxPoint x="572" y="149.75" as="targetPoint" />
            <Array as="points">
              <mxPoint x="532" y="340" />
            </Array>
          </mxGeometry>
        </mxCell>
        <mxCell id="Zt5BA39hv14aOKBqLXmp-27" value="" style="endArrow=classic;html=1;exitX=0.5;exitY=1;exitDx=0;exitDy=0;" parent="Zt5BA39hv14aOKBqLXmp-30" edge="1">
          <mxGeometry x="97" width="50" height="50" as="geometry">
            <mxPoint x="436.5" y="80" as="sourcePoint" />
            <mxPoint x="437" y="240" as="targetPoint" />
          </mxGeometry>
        </mxCell>
        <mxCell id="Zt5BA39hv14aOKBqLXmp-28" value="" style="endArrow=classic;html=1;exitX=0.5;exitY=1;exitDx=0;exitDy=0;" parent="Zt5BA39hv14aOKBqLXmp-30" edge="1">
          <mxGeometry x="-233" width="50" height="50" as="geometry">
            <mxPoint x="106.5" y="80" as="sourcePoint" />
            <mxPoint x="107" y="240" as="targetPoint" />
          </mxGeometry>
        </mxCell>
        <mxCell id="Zt5BA39hv14aOKBqLXmp-37" value="" style="shape=mxgraph.bpmn.service_task;html=1;outlineConnect=0;align=center;" parent="Zt5BA39hv14aOKBqLXmp-30" vertex="1">
          <mxGeometry x="163" y="20" width="14" height="14" as="geometry" />
        </mxCell>
        <mxCell id="Zt5BA39hv14aOKBqLXmp-38" value="" style="shape=mxgraph.bpmn.service_task;html=1;outlineConnect=0;align=center;" parent="Zt5BA39hv14aOKBqLXmp-30" vertex="1">
          <mxGeometry x="333" y="20" width="14" height="14" as="geometry" />
        </mxCell>
        <mxCell id="Zt5BA39hv14aOKBqLXmp-39" value="" style="shape=mxgraph.bpmn.service_task;html=1;outlineConnect=0;align=center;" parent="Zt5BA39hv14aOKBqLXmp-30" vertex="1">
          <mxGeometry x="493" y="20" width="14" height="14" as="geometry" />
        </mxCell>
        <mxCell id="Zt5BA39hv14aOKBqLXmp-32" value="FHIR-DB (PostgreSQL)" style="shape=cylinder3;whiteSpace=wrap;html=1;boundedLbl=1;backgroundOutline=1;size=15;align=center;" parent="1" vertex="1">
          <mxGeometry x="1154" y="-360" width="90" height="80" as="geometry" />
        </mxCell>
        <mxCell id="Zt5BA39hv14aOKBqLXmp-34" value="" style="endArrow=classic;html=1;entryX=0;entryY=0.5;entryDx=0;entryDy=0;entryPerimeter=0;exitX=1;exitY=0.5;exitDx=0;exitDy=0;dashed=1;" parent="1" edge="1">
          <mxGeometry width="50" height="50" relative="1" as="geometry">
            <mxPoint x="1094" y="-220.5" as="sourcePoint" />
            <mxPoint x="1154" y="-220.5" as="targetPoint" />
          </mxGeometry>
        </mxCell>
        <mxCell id="Zt5BA39hv14aOKBqLXmp-35" value="Kafka-&lt;br&gt;Topic" style="shape=internalStorage;whiteSpace=wrap;html=1;backgroundOutline=1;align=center;dashed=1;" parent="1" vertex="1">
          <mxGeometry x="1154" y="-160" width="90" height="80" as="geometry" />
        </mxCell>
        <mxCell id="Zt5BA39hv14aOKBqLXmp-36" value="" style="endArrow=classic;html=1;entryX=0;entryY=0.5;entryDx=0;entryDy=0;entryPerimeter=0;exitX=1;exitY=0.5;exitDx=0;exitDy=0;dashed=1;" parent="1" edge="1">
          <mxGeometry width="50" height="50" relative="1" as="geometry">
            <mxPoint x="1094" y="-120.5" as="sourcePoint" />
            <mxPoint x="1154" y="-120.5" as="targetPoint" />
          </mxGeometry>
        </mxCell>
        <mxCell id="Zt5BA39hv14aOKBqLXmp-44" value="Optional&lt;br&gt;FHIR-Server" style="shape=cube;whiteSpace=wrap;html=1;boundedLbl=1;backgroundOutline=1;darkOpacity=0.05;darkOpacity2=0.1;align=center;size=10;dashed=1;" parent="1" vertex="1">
          <mxGeometry x="1154" y="-260" width="90" height="80" as="geometry" />
        </mxCell>
        <mxCell id="Zt5BA39hv14aOKBqLXmp-60" style="edgeStyle=orthogonalEdgeStyle;orthogonalLoop=1;jettySize=auto;html=1;" parent="1" source="Zt5BA39hv14aOKBqLXmp-46" target="Zt5BA39hv14aOKBqLXmp-62" edge="1">
          <mxGeometry relative="1" as="geometry" />
        </mxCell>
        <mxCell id="Zt5BA39hv14aOKBqLXmp-46" value="EDC" style="shape=note;whiteSpace=wrap;html=1;backgroundOutline=1;darkOpacity=0.05;fontSize=12;align=center;" parent="1" vertex="1">
          <mxGeometry x="62" y="-60" width="80" height="100" as="geometry" />
        </mxCell>
        <mxCell id="Zt5BA39hv14aOKBqLXmp-47" value="" style="shape=umlActor;verticalLabelPosition=bottom;verticalAlign=middle;html=1;outlineConnect=0;fontSize=12;align=center;" parent="1" vertex="1">
          <mxGeometry x="7" y="-40" width="30" height="60" as="geometry" />
        </mxCell>
        <mxCell id="Zt5BA39hv14aOKBqLXmp-49" value="" style="endArrow=classic;html=1;entryX=0;entryY=0.5;entryDx=0;entryDy=0;entryPerimeter=0;" parent="1" source="Zt5BA39hv14aOKBqLXmp-47" target="Zt5BA39hv14aOKBqLXmp-46" edge="1">
          <mxGeometry width="50" height="50" relative="1" as="geometry">
            <mxPoint x="397" y="-240" as="sourcePoint" />
            <mxPoint x="447" y="-290" as="targetPoint" />
          </mxGeometry>
        </mxCell>
        <mxCell id="Zt5BA39hv14aOKBqLXmp-52" value="" style="endArrow=classic;html=1;entryX=0;entryY=0.5;entryDx=0;entryDy=0;" parent="1" source="Zt5BA39hv14aOKBqLXmp-51" target="Zt5BA39hv14aOKBqLXmp-2" edge="1">
          <mxGeometry width="50" height="50" relative="1" as="geometry">
            <mxPoint x="582" y="-240" as="sourcePoint" />
            <mxPoint x="632" y="-290" as="targetPoint" />
            <Array as="points">
              <mxPoint x="354" y="-220" />
              <mxPoint x="354" y="-270" />
            </Array>
          </mxGeometry>
        </mxCell>
        <mxCell id="Zt5BA39hv14aOKBqLXmp-51" value="*-to-fhir" style="shape=mxgraph.bpmn.service_task;html=1;outlineConnect=0;labelPosition=center;verticalLabelPosition=top;align=center;verticalAlign=bottom;" parent="1" vertex="1">
          <mxGeometry x="212" y="-270.25" width="100" height="100.5" as="geometry" />
        </mxCell>
        <mxCell id="Zt5BA39hv14aOKBqLXmp-58" value="" style="group;" parent="1" vertex="1" connectable="0">
          <mxGeometry x="32" y="-290.25" width="120" height="120.5" as="geometry" />
        </mxCell>
        <mxCell id="Zt5BA39hv14aOKBqLXmp-55" value="Clinical Source Systems" style="shape=cylinder3;whiteSpace=wrap;html=1;boundedLbl=1;backgroundOutline=1;size=15;" parent="Zt5BA39hv14aOKBqLXmp-58" vertex="1">
          <mxGeometry width="100" height="100.5" as="geometry" />
        </mxCell>
        <mxCell id="Zt5BA39hv14aOKBqLXmp-56" value="Clinical Source Systems" style="shape=cylinder3;whiteSpace=wrap;html=1;boundedLbl=1;backgroundOutline=1;size=15;" parent="Zt5BA39hv14aOKBqLXmp-58" vertex="1">
          <mxGeometry x="10" y="10" width="100" height="100.5" as="geometry" />
        </mxCell>
        <mxCell id="Zt5BA39hv14aOKBqLXmp-57" value="Clinical Source Systems" style="shape=cylinder3;whiteSpace=wrap;html=1;boundedLbl=1;backgroundOutline=1;size=15;" parent="Zt5BA39hv14aOKBqLXmp-58" vertex="1">
          <mxGeometry x="20" y="20" width="100" height="100.5" as="geometry" />
        </mxCell>
        <mxCell id="Zt5BA39hv14aOKBqLXmp-59" style="edgeStyle=orthogonalEdgeStyle;orthogonalLoop=1;jettySize=auto;html=1;exitX=1;exitY=0.5;exitDx=0;exitDy=0;exitPerimeter=0;" parent="1" source="Zt5BA39hv14aOKBqLXmp-57" target="Zt5BA39hv14aOKBqLXmp-51" edge="1">
          <mxGeometry relative="1" as="geometry" />
        </mxCell>
        <mxCell id="6" value="A" style="edgeLabel;html=1;align=center;verticalAlign=middle;resizable=0;points=[];" parent="Zt5BA39hv14aOKBqLXmp-59" vertex="1" connectable="0">
          <mxGeometry x="-0.2346" y="-2" relative="1" as="geometry">
            <mxPoint as="offset" />
          </mxGeometry>
        </mxCell>
        <mxCell id="Zt5BA39hv14aOKBqLXmp-62" value="odm-to-fhir" style="shape=mxgraph.bpmn.service_task;html=1;outlineConnect=0;labelPosition=center;verticalLabelPosition=top;align=center;verticalAlign=bottom;" parent="1" vertex="1">
          <mxGeometry x="212" y="-57.5" width="100" height="95" as="geometry" />
        </mxCell>
        <mxCell id="Zt5BA39hv14aOKBqLXmp-66" style="edgeStyle=orthogonalEdgeStyle;orthogonalLoop=1;jettySize=auto;html=1;endArrow=none;endFill=0;" parent="1" source="Zt5BA39hv14aOKBqLXmp-62" edge="1">
          <mxGeometry relative="1" as="geometry">
            <mxPoint x="354" y="-240" as="targetPoint" />
            <mxPoint x="382" y="-50" as="sourcePoint" />
          </mxGeometry>
        </mxCell>
        <mxCell id="Zt5BA39hv14aOKBqLXmp-83" value="fhir-to-i2b2" style="shape=mxgraph.bpmn.service_task;html=1;outlineConnect=0;labelPosition=center;verticalLabelPosition=top;align=center;verticalAlign=bottom;" parent="1" vertex="1">
          <mxGeometry x="1334" y="-465" width="90" height="90" as="geometry" />
        </mxCell>
        <mxCell id="Zt5BA39hv14aOKBqLXmp-85" value="i2b2&lt;br&gt;(Feasibility Var. 1)" style="shape=cube;whiteSpace=wrap;html=1;boundedLbl=1;backgroundOutline=1;darkOpacity=0.05;darkOpacity2=0.1;align=center;size=10;" parent="1" vertex="1">
          <mxGeometry x="1462" y="-460" width="90" height="80" as="geometry" />
        </mxCell>
        <mxCell id="Zt5BA39hv14aOKBqLXmp-86" value="" style="endArrow=classic;html=1;" parent="1" source="Zt5BA39hv14aOKBqLXmp-83" target="Zt5BA39hv14aOKBqLXmp-85" edge="1">
          <mxGeometry width="50" height="50" relative="1" as="geometry">
            <mxPoint x="1422" y="-486" as="sourcePoint" />
            <mxPoint x="1462" y="-475" as="targetPoint" />
          </mxGeometry>
        </mxCell>
        <mxCell id="4hY9-Zoo_yzl3ai_Mlpk-6" value="" style="endArrow=classic;html=1;" parent="1" source="UJUMtMTHQ7Rxm2CL5eUm-10" target="4hY9-Zoo_yzl3ai_Mlpk-1" edge="1">
          <mxGeometry width="50" height="50" relative="1" as="geometry">
            <mxPoint x="1132" y="-175" as="sourcePoint" />
            <mxPoint x="1182" y="-225" as="targetPoint" />
            <Array as="points" />
          </mxGeometry>
        </mxCell>
        <mxCell id="4hY9-Zoo_yzl3ai_Mlpk-10" value="&lt;b&gt;NUM CODEX Architektur Erlangen, Draft&lt;br&gt;&lt;/b&gt;16.04.2021, Marvin Kampf, DIZ UK Erlangen (marvin.kampf@uk-erlangen.de)&lt;br&gt;22.05. angepasst an offizielle PSN Namen, Anna-Antonia Pape, UK Tü" style="text;html=1;strokeColor=none;fillColor=none;align=right;verticalAlign=middle;whiteSpace=wrap;labelBorderColor=#000000;labelBackgroundColor=#E6E6E6;" parent="1" vertex="1">
          <mxGeometry x="1360" y="-980" width="420" height="20" as="geometry" />
        </mxCell>
        <mxCell id="4" style="edgeStyle=orthogonalEdgeStyle;rounded=0;orthogonalLoop=1;jettySize=auto;html=1;endArrow=classic;endFill=1;" parent="1" source="Zt5BA39hv14aOKBqLXmp-57" target="Zt5BA39hv14aOKBqLXmp-46" edge="1">
          <mxGeometry relative="1" as="geometry" />
        </mxCell>
        <mxCell id="5" value="B" style="edgeLabel;html=1;align=center;verticalAlign=middle;resizable=0;points=[];" parent="4" vertex="1" connectable="0">
          <mxGeometry x="-0.1481" y="-2" relative="1" as="geometry">
            <mxPoint as="offset" />
          </mxGeometry>
        </mxCell>
        <mxCell id="9" value="" style="endArrow=classic;html=1;curved=1;startArrow=classic;startFill=1;" parent="1" source="Zt5BA39hv14aOKBqLXmp-8" target="Zt5BA39hv14aOKBqLXmp-32" edge="1">
          <mxGeometry width="50" height="50" relative="1" as="geometry">
            <mxPoint x="724" y="-170" as="sourcePoint" />
            <mxPoint x="774" y="-220" as="targetPoint" />
            <Array as="points">
              <mxPoint x="950" y="-740" />
            </Array>
          </mxGeometry>
        </mxCell>
        <mxCell id="10" value="Lookup for 3-way Merge" style="edgeLabel;html=1;align=center;verticalAlign=middle;resizable=0;points=[];fontSize=12;" parent="9" vertex="1" connectable="0">
          <mxGeometry x="0.3322" y="-2" relative="1" as="geometry">
            <mxPoint x="-58" y="57" as="offset" />
          </mxGeometry>
        </mxCell>
        <mxCell id="UJUMtMTHQ7Rxm2CL5eUm-10" value="fhir-to-gecco-server" style="shape=mxgraph.bpmn.service_task;html=1;outlineConnect=0;labelPosition=center;verticalLabelPosition=bottom;align=center;verticalAlign=top;fillColor=#fff2cc;strokeColor=#d6b656;" parent="1" vertex="1">
          <mxGeometry x="1334" y="-180" width="90" height="90" as="geometry" />
        </mxCell>
        <mxCell id="UJUMtMTHQ7Rxm2CL5eUm-12" value="" style="endArrow=classic;html=1;" parent="1" source="Zt5BA39hv14aOKBqLXmp-32" target="UJUMtMTHQ7Rxm2CL5eUm-10" edge="1">
          <mxGeometry width="50" height="50" relative="1" as="geometry">
            <mxPoint x="1316" y="-320" as="sourcePoint" />
            <mxPoint x="1364" y="-410" as="targetPoint" />
            <Array as="points">
              <mxPoint x="1294" y="-320" />
              <mxPoint x="1294" y="-135" />
            </Array>
          </mxGeometry>
        </mxCell>
        <mxCell id="UJUMtMTHQ7Rxm2CL5eUm-14" value="" style="endArrow=classic;html=1;" parent="1" source="Zt5BA39hv14aOKBqLXmp-32" target="Zt5BA39hv14aOKBqLXmp-83" edge="1">
          <mxGeometry width="50" height="50" relative="1" as="geometry">
            <mxPoint x="956" y="-220" as="sourcePoint" />
            <mxPoint x="1006" y="-270" as="targetPoint" />
            <Array as="points">
              <mxPoint x="1294" y="-320" />
              <mxPoint x="1294" y="-420" />
            </Array>
          </mxGeometry>
        </mxCell>
        <mxCell id="UJUMtMTHQ7Rxm2CL5eUm-17" value="(DSF) BPE" style="shape=cube;whiteSpace=wrap;html=1;boundedLbl=1;backgroundOutline=1;darkOpacity=0.05;darkOpacity2=0.1;align=center;size=10;fillColor=#d5e8d4;strokeColor=#82b366;" parent="1" vertex="1">
          <mxGeometry x="1474" y="20" width="182" height="80" as="geometry" />
        </mxCell>
        <mxCell id="Zt5BA39hv14aOKBqLXmp-80" style="edgeStyle=orthogonalEdgeStyle;orthogonalLoop=1;jettySize=auto;html=1;startArrow=classic;startFill=1;endArrow=none;endFill=0;entryX=0;entryY=0;entryDx=0;entryDy=0;entryPerimeter=0;exitX=0;exitY=0;exitDx=10;exitDy=80;exitPerimeter=0;" parent="1" source="4hY9-Zoo_yzl3ai_Mlpk-1" target="UJUMtMTHQ7Rxm2CL5eUm-17" edge="1">
          <mxGeometry relative="1" as="geometry">
            <mxPoint x="1424" y="-50" as="sourcePoint" />
          </mxGeometry>
        </mxCell>
        <mxCell id="UJUMtMTHQ7Rxm2CL5eUm-31" value="Pull for Data Sharing" style="edgeLabel;html=1;align=center;verticalAlign=middle;resizable=0;points=[];" parent="Zt5BA39hv14aOKBqLXmp-80" vertex="1" connectable="0">
          <mxGeometry x="-0.0996" y="2" relative="1" as="geometry">
            <mxPoint x="-21.78" y="40.78" as="offset" />
          </mxGeometry>
        </mxCell>
        <mxCell id="UJUMtMTHQ7Rxm2CL5eUm-33" value="Connection to (DSF) FHIR Mailbox (Tasks) in DMZ" style="whiteSpace=wrap;html=1;shape=mxgraph.basic.cloud_callout;flipH=1;align=center;direction=west;labelPosition=center;verticalLabelPosition=middle;verticalAlign=middle;spacingTop=40;" parent="1" vertex="1">
          <mxGeometry x="1574" y="80" width="220" height="110" as="geometry" />
        </mxCell>
        <mxCell id="UJUMtMTHQ7Rxm2CL5eUm-38" value="FLARE" style="shape=cube;whiteSpace=wrap;html=1;boundedLbl=1;backgroundOutline=1;darkOpacity=0.05;darkOpacity2=0.1;align=center;size=10;" parent="1" vertex="1">
          <mxGeometry x="1624" y="-175" width="90" height="80" as="geometry" />
        </mxCell>
        <mxCell id="4hY9-Zoo_yzl3ai_Mlpk-1" value="GECCO-FHIR-Server" style="shape=cube;whiteSpace=wrap;html=1;boundedLbl=1;backgroundOutline=1;darkOpacity=0.05;darkOpacity2=0.1;align=center;size=10;" parent="1" vertex="1">
          <mxGeometry x="1462" y="-175" width="90" height="80" as="geometry" />
        </mxCell>
        <mxCell id="UJUMtMTHQ7Rxm2CL5eUm-39" value="" style="endArrow=classic;html=1;exitX=0;exitY=0;exitDx=172;exitDy=0;exitPerimeter=0;" parent="1" source="UJUMtMTHQ7Rxm2CL5eUm-17" target="UJUMtMTHQ7Rxm2CL5eUm-38" edge="1">
          <mxGeometry width="50" height="50" relative="1" as="geometry">
            <mxPoint x="954" y="-180" as="sourcePoint" />
            <mxPoint x="1637" y="-130" as="targetPoint" />
          </mxGeometry>
        </mxCell>
        <mxCell id="UJUMtMTHQ7Rxm2CL5eUm-41" value="Feasibility Var. 3B" style="edgeLabel;html=1;align=center;verticalAlign=middle;resizable=0;points=[];" parent="UJUMtMTHQ7Rxm2CL5eUm-39" vertex="1" connectable="0">
          <mxGeometry x="0.0199" relative="1" as="geometry">
            <mxPoint y="-19.89" as="offset" />
          </mxGeometry>
        </mxCell>
        <mxCell id="UJUMtMTHQ7Rxm2CL5eUm-42" value="" style="endArrow=classic;html=1;exitX=0;exitY=0;exitDx=86;exitDy=0;exitPerimeter=0;entryX=0;entryY=0;entryDx=50;entryDy=80;entryPerimeter=0;" parent="1" source="UJUMtMTHQ7Rxm2CL5eUm-17" target="4hY9-Zoo_yzl3ai_Mlpk-1" edge="1">
          <mxGeometry width="50" height="50" relative="1" as="geometry">
            <mxPoint x="1144" y="-200" as="sourcePoint" />
            <mxPoint x="1194" y="-250" as="targetPoint" />
          </mxGeometry>
        </mxCell>
        <mxCell id="UJUMtMTHQ7Rxm2CL5eUm-44" value="Feasibility Var. 3A" style="edgeLabel;html=1;align=center;verticalAlign=middle;resizable=0;points=[];" parent="UJUMtMTHQ7Rxm2CL5eUm-42" vertex="1" connectable="0">
          <mxGeometry x="0.3463" y="1" relative="1" as="geometry">
            <mxPoint x="30.55" y="31.009999999999998" as="offset" />
          </mxGeometry>
        </mxCell>
        <mxCell id="UJUMtMTHQ7Rxm2CL5eUm-43" value="" style="endArrow=classic;html=1;" parent="1" source="UJUMtMTHQ7Rxm2CL5eUm-38" target="4hY9-Zoo_yzl3ai_Mlpk-1" edge="1">
          <mxGeometry width="50" height="50" relative="1" as="geometry">
            <mxPoint x="1144" y="-200" as="sourcePoint" />
            <mxPoint x="1194" y="-250" as="targetPoint" />
          </mxGeometry>
        </mxCell>
        <mxCell id="UJUMtMTHQ7Rxm2CL5eUm-45" value="Aktin" style="shape=cube;whiteSpace=wrap;html=1;boundedLbl=1;backgroundOutline=1;darkOpacity=0.05;darkOpacity2=0.1;align=center;size=10;" parent="1" vertex="1">
          <mxGeometry x="1624" y="-370.25" width="90" height="80" as="geometry" />
        </mxCell>
        <mxCell id="UJUMtMTHQ7Rxm2CL5eUm-46" value="" style="endArrow=classic;html=1;" parent="1" source="UJUMtMTHQ7Rxm2CL5eUm-45" target="4hY9-Zoo_yzl3ai_Mlpk-1" edge="1">
          <mxGeometry width="50" height="50" relative="1" as="geometry">
            <mxPoint x="1520" y="-32.5" as="sourcePoint" />
            <mxPoint x="1522" y="-170" as="targetPoint" />
          </mxGeometry>
        </mxCell>
        <mxCell id="UJUMtMTHQ7Rxm2CL5eUm-47" value="Feasibility Var. 2A" style="edgeLabel;html=1;align=center;verticalAlign=middle;resizable=0;points=[];" parent="UJUMtMTHQ7Rxm2CL5eUm-46" vertex="1" connectable="0">
          <mxGeometry x="0.3463" y="1" relative="1" as="geometry">
            <mxPoint x="12.980000000000002" y="-43.2" as="offset" />
          </mxGeometry>
        </mxCell>
        <mxCell id="UJUMtMTHQ7Rxm2CL5eUm-48" value="" style="endArrow=classic;html=1;" parent="1" source="UJUMtMTHQ7Rxm2CL5eUm-45" target="UJUMtMTHQ7Rxm2CL5eUm-38" edge="1">
          <mxGeometry width="50" height="50" relative="1" as="geometry">
            <mxPoint x="1144" y="-200" as="sourcePoint" />
            <mxPoint x="1194" y="-250" as="targetPoint" />
          </mxGeometry>
        </mxCell>
        <mxCell id="UJUMtMTHQ7Rxm2CL5eUm-49" value="Feasibility Var. 2B" style="edgeLabel;html=1;align=center;verticalAlign=middle;resizable=0;points=[];" parent="UJUMtMTHQ7Rxm2CL5eUm-48" vertex="1" connectable="0">
          <mxGeometry x="0.2557" y="1" relative="1" as="geometry">
            <mxPoint as="offset" />
          </mxGeometry>
        </mxCell>
        <mxCell id="UJUMtMTHQ7Rxm2CL5eUm-50" value="Lokale Treuhandstelle" style="rounded=0;whiteSpace=wrap;html=1;labelPosition=center;verticalLabelPosition=top;align=center;verticalAlign=bottom;fillColor=#d5e8d4;strokeColor=#82b366;fontColor=#006633;" parent="1" vertex="1">
          <mxGeometry x="554" y="-830" width="330" height="180" as="geometry" />
        </mxCell>
        <mxCell id="UJUMtMTHQ7Rxm2CL5eUm-55" value="E-PIX" style="shape=process;whiteSpace=wrap;html=1;backgroundOutline=1;" parent="1" vertex="1">
          <mxGeometry x="574" y="-815" width="90" height="30" as="geometry" />
        </mxCell>
        <mxCell id="UJUMtMTHQ7Rxm2CL5eUm-56" value="gPAS" style="shape=process;whiteSpace=wrap;html=1;backgroundOutline=1;" parent="1" vertex="1">
          <mxGeometry x="674" y="-815" width="90" height="30" as="geometry" />
        </mxCell>
        <mxCell id="uqaeGx0HP7bvnvXOPrDI-12" style="edgeStyle=orthogonalEdgeStyle;orthogonalLoop=1;jettySize=auto;html=1;curved=1;" parent="1" source="uqaeGx0HP7bvnvXOPrDI-21" target="uqaeGx0HP7bvnvXOPrDI-10" edge="1">
          <mxGeometry relative="1" as="geometry">
            <Array as="points">
              <mxPoint x="819" y="-580" />
              <mxPoint x="147" y="-580" />
            </Array>
          </mxGeometry>
        </mxCell>
        <mxCell id="uqaeGx0HP7bvnvXOPrDI-32" value="FHIR-Consent-Resource" style="edgeLabel;html=1;align=center;verticalAlign=middle;resizable=0;points=[];fontSize=12;" parent="uqaeGx0HP7bvnvXOPrDI-12" vertex="1" connectable="0">
          <mxGeometry x="0.1489" y="-7" relative="1" as="geometry">
            <mxPoint as="offset" />
          </mxGeometry>
        </mxCell>
        <mxCell id="UJUMtMTHQ7Rxm2CL5eUm-57" value="gICS" style="shape=process;whiteSpace=wrap;html=1;backgroundOutline=1;" parent="1" vertex="1">
          <mxGeometry x="774" y="-815" width="90" height="30" as="geometry" />
        </mxCell>
        <mxCell id="UJUMtMTHQ7Rxm2CL5eUm-58" value="&lt;font&gt;Dispatcher&lt;/font&gt;" style="shape=process;whiteSpace=wrap;html=1;backgroundOutline=1;fillColor=#e1d5e7;strokeColor=#9673a6;" parent="1" vertex="1">
          <mxGeometry x="574" y="-770" width="290" height="60" as="geometry" />
        </mxCell>
        <mxCell id="UJUMtMTHQ7Rxm2CL5eUm-62" value="Federated Trusted Third Party (fTTP)" style="rounded=0;whiteSpace=wrap;html=1;labelPosition=center;verticalLabelPosition=top;align=center;verticalAlign=bottom;fillColor=#d5e8d4;strokeColor=#82b366;fontColor=#006633;" parent="1" vertex="1">
          <mxGeometry x="554" y="-970" width="330" height="70" as="geometry" />
        </mxCell>
        <mxCell id="UJUMtMTHQ7Rxm2CL5eUm-63" value="E-PIX" style="shape=process;whiteSpace=wrap;html=1;backgroundOutline=1;" parent="1" vertex="1">
          <mxGeometry x="574" y="-950" width="90" height="30" as="geometry" />
        </mxCell>
        <mxCell id="UJUMtMTHQ7Rxm2CL5eUm-64" value="gPAS" style="shape=process;whiteSpace=wrap;html=1;backgroundOutline=1;" parent="1" vertex="1">
          <mxGeometry x="674" y="-950" width="90" height="30" as="geometry" />
        </mxCell>
        <mxCell id="UJUMtMTHQ7Rxm2CL5eUm-65" value="gICS" style="shape=process;whiteSpace=wrap;html=1;backgroundOutline=1;" parent="1" vertex="1">
          <mxGeometry x="774" y="-950" width="90" height="30" as="geometry" />
        </mxCell>
        <mxCell id="UJUMtMTHQ7Rxm2CL5eUm-67" value="&amp;nbsp; &amp;nbsp; &amp;nbsp; &amp;nbsp; &lt;u&gt;IDAT for BF:&lt;br&gt;&lt;/u&gt;&lt;ul&gt;&lt;li&gt;Vorname&lt;/li&gt;&lt;li&gt;Nachname&lt;/li&gt;&lt;li&gt;Geburtsdatum&lt;/li&gt;&lt;li&gt;Geschlecht&lt;/li&gt;&lt;/ul&gt;" style="shape=card;whiteSpace=wrap;html=1;align=left;" parent="1" vertex="1">
          <mxGeometry x="337" y="-825" width="130" height="125" as="geometry" />
        </mxCell>
        <mxCell id="UJUMtMTHQ7Rxm2CL5eUm-68" value="" style="endArrow=classic;html=1;fontColor=#000000;" parent="1" source="UJUMtMTHQ7Rxm2CL5eUm-67" target="UJUMtMTHQ7Rxm2CL5eUm-55" edge="1">
          <mxGeometry width="50" height="50" relative="1" as="geometry">
            <mxPoint x="864" y="-490" as="sourcePoint" />
            <mxPoint x="914" y="-540" as="targetPoint" />
          </mxGeometry>
        </mxCell>
        <mxCell id="UJUMtMTHQ7Rxm2CL5eUm-74" value="" style="endArrow=classic;html=1;strokeWidth=1;fontSize=12;fontColor=#000000;curved=1;" parent="1" source="UJUMtMTHQ7Rxm2CL5eUm-10" target="uqaeGx0HP7bvnvXOPrDI-13" edge="1">
          <mxGeometry width="50" height="50" relative="1" as="geometry">
            <mxPoint x="864" y="-430" as="sourcePoint" />
            <mxPoint x="984" y="-650" as="targetPoint" />
            <Array as="points">
              <mxPoint x="1224" y="-500" />
            </Array>
          </mxGeometry>
        </mxCell>
        <mxCell id="UJUMtMTHQ7Rxm2CL5eUm-76" value="" style="endArrow=none;html=1;strokeWidth=1;fontSize=12;fontColor=#000000;endFill=0;startArrow=classic;startFill=1;" parent="1" target="UJUMtMTHQ7Rxm2CL5eUm-45" edge="1">
          <mxGeometry width="50" height="50" relative="1" as="geometry">
            <mxPoint x="1784" y="-330" as="sourcePoint" />
            <mxPoint x="1694" y="-490" as="targetPoint" />
          </mxGeometry>
        </mxCell>
        <mxCell id="UJUMtMTHQ7Rxm2CL5eUm-78" value="" style="endArrow=none;html=1;strokeWidth=1;fontSize=12;fontColor=#000000;startArrow=classic;startFill=1;endFill=0;" parent="1" target="UJUMtMTHQ7Rxm2CL5eUm-17" edge="1">
          <mxGeometry width="50" height="50" relative="1" as="geometry">
            <mxPoint x="1784" y="60" as="sourcePoint" />
            <mxPoint x="1684" y="59.447826086956525" as="targetPoint" />
          </mxGeometry>
        </mxCell>
        <mxCell id="uqaeGx0HP7bvnvXOPrDI-19" style="edgeStyle=orthogonalEdgeStyle;curved=1;orthogonalLoop=1;jettySize=auto;html=1;" parent="1" source="uqaeGx0HP7bvnvXOPrDI-10" target="Zt5BA39hv14aOKBqLXmp-2" edge="1">
          <mxGeometry relative="1" as="geometry">
            <Array as="points">
              <mxPoint x="140" y="-380" />
              <mxPoint x="340" y="-380" />
              <mxPoint x="340" y="-270" />
            </Array>
          </mxGeometry>
        </mxCell>
        <mxCell id="uqaeGx0HP7bvnvXOPrDI-10" value="gics-to-fhir" style="shape=mxgraph.bpmn.service_task;html=1;outlineConnect=0;labelPosition=right;verticalLabelPosition=middle;align=left;verticalAlign=middle;fillColor=#fff2cc;strokeColor=#d6b656;" parent="1" vertex="1">
          <mxGeometry x="62" y="-600" width="90" height="90" as="geometry" />
        </mxCell>
        <mxCell id="uqaeGx0HP7bvnvXOPrDI-14" style="edgeStyle=orthogonalEdgeStyle;orthogonalLoop=1;jettySize=auto;html=1;curved=1;" parent="1" source="uqaeGx0HP7bvnvXOPrDI-13" target="UJUMtMTHQ7Rxm2CL5eUm-62" edge="1">
          <mxGeometry relative="1" as="geometry">
            <Array as="points">
              <mxPoint x="1289" y="-935" />
            </Array>
          </mxGeometry>
        </mxCell>
        <mxCell id="uqaeGx0HP7bvnvXOPrDI-17" value="getPsnCentralForBf()" style="edgeLabel;html=1;align=center;verticalAlign=middle;resizable=0;points=[];" parent="uqaeGx0HP7bvnvXOPrDI-14" vertex="1" connectable="0">
          <mxGeometry x="-0.1866" y="15" relative="1" as="geometry">
            <mxPoint as="offset" />
          </mxGeometry>
        </mxCell>
        <mxCell id="uqaeGx0HP7bvnvXOPrDI-15" style="edgeStyle=orthogonalEdgeStyle;curved=1;orthogonalLoop=1;jettySize=auto;html=1;" parent="1" source="uqaeGx0HP7bvnvXOPrDI-13" target="UJUMtMTHQ7Rxm2CL5eUm-56" edge="1">
          <mxGeometry relative="1" as="geometry">
            <mxPoint x="750" y="-815" as="targetPoint" />
            <Array as="points">
              <mxPoint x="1289" y="-880" />
              <mxPoint x="790" y="-880" />
              <mxPoint x="790" y="-820" />
              <mxPoint x="719" y="-820" />
            </Array>
          </mxGeometry>
        </mxCell>
        <mxCell id="uqaeGx0HP7bvnvXOPrDI-16" value="save()" style="edgeLabel;html=1;align=center;verticalAlign=middle;resizable=0;points=[];" parent="uqaeGx0HP7bvnvXOPrDI-15" vertex="1" connectable="0">
          <mxGeometry x="-0.3107" y="-6" relative="1" as="geometry">
            <mxPoint as="offset" />
          </mxGeometry>
        </mxCell>
        <mxCell id="uqaeGx0HP7bvnvXOPrDI-13" value="getPSNs()" style="shape=mxgraph.bpmn.service_task;html=1;outlineConnect=0;labelPosition=right;verticalLabelPosition=middle;align=left;verticalAlign=middle;fillColor=#fff2cc;strokeColor=#d6b656;" parent="1" vertex="1">
          <mxGeometry x="1244" y="-860" width="90" height="90" as="geometry" />
        </mxCell>
        <mxCell id="uqaeGx0HP7bvnvXOPrDI-21" value="&lt;font&gt;TTP FHIR-GW&lt;/font&gt;" style="shape=process;whiteSpace=wrap;html=1;backgroundOutline=1;" parent="1" vertex="1">
          <mxGeometry x="574" y="-695" width="290" height="30" as="geometry" />
        </mxCell>
        <mxCell id="uqaeGx0HP7bvnvXOPrDI-23" value="&lt;font color=&quot;#ff0000&quot;&gt;&lt;span&gt;Woran erkennt man GECCO-Daten und -Consente?&lt;br&gt;Frage ist relevant für Standorte, die den NUM Knoten auch für Nicht-GECCO-Daten nutzen.&lt;br&gt;&lt;/span&gt;&lt;/font&gt;" style="text;html=1;strokeColor=#b85450;fillColor=#f8cecc;align=center;verticalAlign=middle;whiteSpace=wrap;rounded=0;" parent="1" vertex="1">
          <mxGeometry x="1210" y="-60" width="160" height="90" as="geometry" />
        </mxCell>
        <mxCell id="uqaeGx0HP7bvnvXOPrDI-24" value="&lt;font color=&quot;#ff0000&quot;&gt;(1. Check if DIC PSN already exists) -&amp;gt; what happens if bloom filter changes like corrections in IDAT?&lt;/font&gt;&lt;br&gt;2. Check consent in gICS for lokales PSN&lt;br&gt;2a. If no consent exists: continue with 6&lt;br&gt;2b. If consent exists: continue with 3&lt;br&gt;3. Get BF from E-PIX&lt;br&gt;4. Send BF to fTTP and receive DIC PSN&lt;br&gt;5. Save and return DIC PSN for substitution&lt;br&gt;6. Get PSN_GECCO for lokales PSN&lt;br&gt;7. Return PSN_GECCO and optionally DIC PSN" style="text;html=1;strokeColor=#6c8ebf;fillColor=#dae8fc;align=left;verticalAlign=middle;whiteSpace=wrap;rounded=0;labelPosition=center;verticalLabelPosition=middle;labelBorderColor=none;spacingTop=0;spacingLeft=0;spacingBottom=0;spacingRight=0;spacing=2;" parent="1" vertex="1">
          <mxGeometry x="1402" y="-851.25" width="326" height="151.25" as="geometry" />
        </mxCell>
        <mxCell id="uqaeGx0HP7bvnvXOPrDI-26" value="&lt;div style=&quot;text-align: left&quot;&gt;(Incrementally by FHIR Update Date)&lt;/div&gt;&lt;div style=&quot;text-align: left&quot;&gt;1. Get all Consents&lt;/div&gt;&lt;div style=&quot;text-align: left&quot;&gt;2. Get Patient Resource from Consent by technical id reference&lt;/div&gt;&lt;div style=&quot;text-align: left&quot;&gt;3. Also get all other Resources for this Patient by technical id reference&lt;/div&gt;" style="text;html=1;strokeColor=#6c8ebf;fillColor=#dae8fc;align=center;verticalAlign=middle;whiteSpace=wrap;rounded=0;fontSize=12;labelBorderColor=none;spacing=0;" parent="1" vertex="1">
          <mxGeometry x="1076" y="40" width="386" height="60" as="geometry" />
        </mxCell>
        <mxCell id="uqaeGx0HP7bvnvXOPrDI-27" value="(Incrementally by timestamp:)&lt;br&gt;1. Get all GECCO consents from gICS-TTP-FHIR-GW 2. Send to FHIR-GW&lt;br&gt;(In gICS consents are saved with lokales PSN)" style="text;html=1;strokeColor=#6c8ebf;fillColor=#dae8fc;align=left;verticalAlign=middle;whiteSpace=wrap;rounded=0;fontSize=12;" parent="1" vertex="1">
          <mxGeometry x="7" y="-690" width="300" height="70" as="geometry" />
        </mxCell>
        <mxCell id="uqaeGx0HP7bvnvXOPrDI-33" value="&lt;font color=&quot;#ff0000&quot;&gt;&lt;span&gt;Was passiert, wenn sich BF ändert?&lt;br&gt;z.B. Korrektur in IDAT: Neues DIC PSN&lt;br&gt;-&amp;gt; zentrale Plattform bekommt von Änderung&amp;nbsp;nichts mit und enthält Ressourcen nochmals unter neuem DIC PSN&lt;br&gt;-&amp;gt; Patienten + MDAT doppelt vorhanden&lt;/span&gt;&lt;/font&gt;" style="text;html=1;strokeColor=#b85450;fillColor=#f8cecc;align=center;verticalAlign=middle;whiteSpace=wrap;rounded=0;" parent="1" vertex="1">
          <mxGeometry x="1440" y="190" width="340" height="100" as="geometry" />
        </mxCell>
        <mxCell id="uqaeGx0HP7bvnvXOPrDI-34" value="&lt;span style=&quot;text-align: left&quot;&gt;Put local PSN into all resources and DIC PSN only in Patient resource&lt;/span&gt;" style="text;html=1;strokeColor=#6c8ebf;fillColor=#dae8fc;align=center;verticalAlign=middle;whiteSpace=wrap;rounded=0;fontSize=12;" parent="1" vertex="1">
          <mxGeometry x="1320" y="-275" width="180" height="50" as="geometry" />
        </mxCell>
        <mxCell id="3" style="edgeStyle=orthogonalEdgeStyle;rounded=0;orthogonalLoop=1;jettySize=auto;html=1;endArrow=none;endFill=0;exitX=0.5;exitY=1;exitDx=0;exitDy=0;" parent="1" source="UJUMtMTHQ7Rxm2CL5eUm-50" target="Zt5BA39hv14aOKBqLXmp-7" edge="1">
          <mxGeometry relative="1" as="geometry">
            <mxPoint x="719" y="-380" as="sourcePoint" />
          </mxGeometry>
        </mxCell>
        <mxCell id="vHBtSxV5N4kJ1uLNlZgT-10" value="&lt;div&gt;&lt;div style=&quot;text-align: center&quot;&gt;&lt;u&gt;Pseudonym-Domänen:&lt;/u&gt;&lt;/div&gt;&lt;/div&gt;&lt;br&gt;&lt;div&gt;&lt;ul&gt;&lt;li&gt;&lt;b&gt;MPI&lt;/b&gt;: Master-Patient-Index aus E-PIX&lt;br&gt;&lt;/li&gt;&lt;li&gt;&lt;b&gt;BF&lt;/b&gt;: Bloom Filter aus E-PIX&lt;/li&gt;&lt;li&gt;&lt;b&gt;PSN_GECCO: &lt;/b&gt;Lokal vergebenes Pseudonym für GECCO-Ressourcen im GECCO-FHIR-Server, &lt;font color=&quot;#ff1808&quot;&gt;dieses PSN ist Erlangen-spezifisch&lt;/font&gt;&lt;br&gt;&lt;/li&gt;&lt;li&gt;&lt;b&gt;DIC PSN&lt;/b&gt;: Zentral vergebenes, record-gelinktes Pseudonym je Standort)&lt;/li&gt;&lt;li&gt;&lt;b&gt;CODEX PSN&lt;/b&gt;: Zentral vergebenes, standortübergreifend gültiges Pseudonym, das die einzelnen Standorte niemals zu sehen bekommen&lt;/li&gt;&lt;/ul&gt;&lt;/div&gt;" style="shape=card;whiteSpace=wrap;html=1;align=left;" parent="1" vertex="1">
          <mxGeometry x="18.5" y="-980" width="261.5" height="280" as="geometry" />
        </mxCell>
        <mxCell id="VzA7a89bhlJmLZzgj0_w-10" value="&lt;font color=&quot;#ff150d&quot;&gt;Wird PSN über FHIR API gespeichert oder via gPAS/Dispatcher API ?&lt;/font&gt;" style="rounded=0;whiteSpace=wrap;html=1;fillColor=#f8cecc;strokeColor=#b85450;" vertex="1" parent="1">
          <mxGeometry x="1076" y="-805.62" width="120" height="60" as="geometry" />
        </mxCell>
      </root>
    </mxGraphModel>
  </diagram>
</mxfile>
